# Tiled2Unity generated file. Do not modify by hand.
# Wavefront file for 'boss1_mesh_0003.obj'

# Vertices (Count = 24)
v -3 -1 0
v -4 -1 0
v -4 0 0
v -3 0 0
v -6 -1 0
v -7 -1 0
v -7 0 0
v -6 0 0
v 0 -3 0
v -1 -3 0
v -1 -2 0
v 0 -2 0
v -9 -3 0
v -10 -3 0
v -10 -2 0
v -9 -2 0
v 0 -10 0
v -1 -10 0
v -1 -9 0
v 0 -9 0
v -9 -10 0
v -10 -10 0
v -10 -9 0
v -9 -9 0

# Texture cooridinates (Count = 17)
vt 0.125 0.8055556
vt 0.15 0.8055556
vt 0.15 0.8333333
vt 0.125 0.8333333
vt 0.175 0.8055556
vt 0.2 0.8055556
vt 0.2 0.8333333
vt 0.175 0.8333333
vt 0.425 0.5555556
vt 0.45 0.5555556
vt 0.45 0.5833334
vt 0.425 0.5833334
vt 0.475 0.5555556
vt 0.475 0.5833334
vt 0.425 0.5277778
vt 0.45 0.5277778
vt 0.475 0.5277778

# Normal
vn 0 0 -1

# Mesh description
g boss1_mesh_0003

# Faces
f 1/1/1 2/2/1 3/3/1 4/4/1
f 5/5/1 6/6/1 7/7/1 8/8/1
f 9/9/1 10/10/1 11/11/1 12/12/1
f 13/10/1 14/13/1 15/14/1 16/11/1
f 17/15/1 18/16/1 19/10/1 20/9/1
f 21/16/1 22/17/1 23/13/1 24/10/1

