# Tiled2Unity generated file. Do not modify by hand.
# Wavefront file for 'boss1_mesh_0002.obj'

# Vertices (Count = 88)
v 0 -3 0
v -1 -3 0
v -1 -2 0
v 0 -2 0
v -1 -3 0
v -2 -3 0
v -2 -2 0
v -1 -2 0
v -2 -3 0
v -3 -3 0
v -3 -2 0
v -2 -2 0
v 0 -4 0
v -1 -4 0
v -1 -3 0
v 0 -3 0
v -1 -4 0
v -2 -4 0
v -2 -3 0
v -1 -3 0
v -2 -4 0
v -3 -4 0
v -3 -3 0
v -2 -3 0
v -3 -8 0
v -4 -8 0
v -4 -7 0
v -3 -7 0
v -6 -8 0
v -7 -8 0
v -7 -7 0
v -6 -7 0
v 0 -9 0
v -1 -9 0
v -1 -8 0
v 0 -8 0
v -1 -9 0
v -2 -9 0
v -2 -8 0
v -1 -8 0
v -3 -9 0
v -4 -9 0
v -4 -8 0
v -3 -8 0
v -6 -9 0
v -7 -9 0
v -7 -8 0
v -6 -8 0
v -7 -9 0
v -8 -9 0
v -8 -8 0
v -7 -8 0
v -8 -9 0
v -9 -9 0
v -9 -8 0
v -8 -8 0
v -9 -9 0
v -10 -9 0
v -10 -8 0
v -9 -8 0
v 0 -10 0
v -1 -10 0
v -1 -9 0
v 0 -9 0
v -1 -10 0
v -2 -10 0
v -2 -9 0
v -1 -9 0
v -3 -10 0
v -4 -10 0
v -4 -9 0
v -3 -9 0
v -6 -10 0
v -7 -10 0
v -7 -9 0
v -6 -9 0
v -7 -10 0
v -8 -10 0
v -8 -9 0
v -7 -9 0
v -8 -10 0
v -9 -10 0
v -9 -9 0
v -8 -9 0
v -9 -10 0
v -10 -10 0
v -10 -9 0
v -9 -9 0

# Texture cooridinates (Count = 26)
vt 0.675 0.9166667
vt 0.7 0.9166667
vt 0.7 0.9444444
vt 0.675 0.9444444
vt 0.725 0.9166667
vt 0.725 0.9444444
vt 0.75 0.9166667
vt 0.75 0.9444444
vt 0.675 0.8888889
vt 0.7 0.8888889
vt 0.725 0.8888889
vt 0.75 0.8888889
vt 0.65 0.9444444
vt 0.675 0.9722222
vt 0.65 0.9722222
vt 0.875 0.8333333
vt 0.9 0.8333333
vt 0.9 0.8611111
vt 0.875 0.8611111
vt 0.925 0.8333333
vt 0.925 0.8611111
vt 0.65 0.9166667
vt 0.875 0.8055556
vt 0.9 0.8055556
vt 0.925 0.8055556
vt 0.65 0.8888889

# Normal
vn 0 0 -1

# Mesh description
g boss1_mesh_0002

# Faces
f 1/1/1 2/2/1 3/3/1 4/4/1
f 5/2/1 6/5/1 7/6/1 8/3/1
f 9/5/1 10/7/1 11/8/1 12/6/1
f 13/9/1 14/10/1 15/2/1 16/1/1
f 17/10/1 18/11/1 19/5/1 20/2/1
f 21/11/1 22/12/1 23/7/1 24/5/1
f 25/13/1 26/4/1 27/14/1 28/15/1
f 29/13/1 30/4/1 31/14/1 32/15/1
f 33/16/1 34/17/1 35/18/1 36/19/1
f 37/17/1 38/20/1 39/21/1 40/18/1
f 41/22/1 42/1/1 43/4/1 44/13/1
f 45/22/1 46/1/1 47/4/1 48/13/1
f 49/1/1 50/2/1 51/3/1 52/4/1
f 53/2/1 54/5/1 55/6/1 56/3/1
f 57/5/1 58/7/1 59/8/1 60/6/1
f 61/23/1 62/24/1 63/17/1 64/16/1
f 65/24/1 66/25/1 67/20/1 68/17/1
f 69/26/1 70/9/1 71/1/1 72/22/1
f 73/26/1 74/9/1 75/1/1 76/22/1
f 77/9/1 78/10/1 79/2/1 80/1/1
f 81/10/1 82/11/1 83/5/1 84/2/1
f 85/11/1 86/12/1 87/7/1 88/5/1

